PathFileType	4	(X/Y/Z)	C:/Users/beibeiliu/ov580/test_trc/User3\sequence.11_training_dense_left.trc
DataRate	CameraRate	NumFrames	NumMarkers	Units	OrigDataRate	OrigDataStartFrame	OrigNumFrames
120	120	13	19	mm	120	25	196
Frame#	Time	ThumbCMC			ThumbMCP			ThumbIP			ThumbTip			IndexMCP			IndexPIP			IndexTip			MiddleMCP			MiddlePIP			MiddleTip			RingMCP			RingPIP			RingTip			PinkyMCP			PinkyPIP			PinkyTip			BackHand1			BackHand2			BackHand3	
		X0	Y0	Z0	X1	Y1	Z1	X2	Y2	Z2	X3	Y3	Z3	X4	Y4	Z4	X5	Y5	Z5	X6	Y6	Z6	X7	Y7	Z7	X8	Y8	Z8	X9	Y9	Z9	X10	Y10	Z10	X11	Y11	Z11	X12	Y12	Z12	X13	Y13	Z13	X14	Y14	Z14	X15	Y15	Z15	X16	Y16	Z16	X17	Y17	Z17	X18	Y18	Z18	
24	0.2	-154.977	-38.986	25.7716	-132.244	-41.3028	8.64518	-113.823	-44.5244	-5.9446	-92.4589	-43.641	-13.7104	-156.786	-44.1259	-52.8612	-147.366	-47.4588	-73.3527	-135.59	-46.804	-96.484	-187.419	-40.9179	-63.5571	-186.582	-45.6293	-88.8862	-184.002	-46.3132	-121.802	-214.242	-43.026	-57.1895	-214.947	-46.1445	-78.6277	-220.87	-49.1284	-102.342	-235.653	-47.3088	-42.0113	-245.268	-51.587	-54.626	-252.608	-53.1527	-75.8621	-207.599	-21.8148	-9.01967	-216.066	-15.232	18.009	-182.404	-21.2129	8.61895	
25	0.208333	-159.843	-40.5692	25.7825	-132.869	-41.2324	11.0187	-108.799	-42.0153	-7.99316	-91.5739	-43.0854	-13.1974	-159.1	-43.8064	-57.1075	-146.482	-47.5923	-77.671	-136.389	-47.1479	-98.4538	-187.047	-40.9301	-66.4821	-182.646	-45.5902	-90.8337	-182.265	-47.7709	-120.338	-214.267	-42.9366	-58.611	-216.619	-46.4024	-82.2124	-221.527	-49.2495	-107.247	-234.09	-47.8535	-43.0372	-244.903	-52.2649	-58.9092	-254.835	-54.2657	-77.004	-212.8	-22.2483	-6.89699	-211.577	-15.035	17.3187	-181.509	-22.2977	6.71306	
26	0.216667	-155.898	-39.5019	24.0453	-132.861	-41.1196	8.17979	-112.816	-43.0201	-10.0673	-94.2161	-44.7664	-18.6861	-157.106	-45.2449	-51.7748	-150.692	-47.5226	-75.1305	-140.557	-47.553	-94.9016	-190.597	-41.6354	-66.0588	-183.335	-47.2493	-87.7548	-180.479	-47.5078	-115.826	-209.94	-43.4262	-58.8006	-213.166	-47.2139	-81.3647	-216.376	-49.4272	-107.226	-236.078	-47.7764	-39.2186	-242.438	-53.6337	-59.8501	-253.849	-52.3803	-75.4093	-213.37	-24.3276	-10.7971	-216.195	-13.9153	21.0758	-179.907	-22.7169	5.86671	
27	0.225	-160.263	-39.8933	24.436	-134.027	-41.56	11.2735	-110.018	-41.4967	-10.6089	-91.034	-42.514	-15.6507	-162.439	-44.9976	-52.413	-147.307	-48.1773	-75.3947	-143.335	-47.0076	-96.417	-187.208	-42.2689	-66.012	-187.783	-46.0075	-89.4158	-179.831	-47.0442	-120.189	-214.143	-43.1586	-56.0744	-215.847	-47.7816	-81.7361	-219.479	-49.3741	-102.956	-238.119	-47.2716	-38.0999	-241.974	-53.4597	-54.7182	-254.237	-55.0094	-75.3914	-209.67	-24.8978	-7.6121	-216.512	-16.1376	21.4367	-182.037	-22.8979	3.85536	
28	0.233333	-156.381	-38.9821	23.2746	-138.146	-42.7695	10.3118	-113.608	-43.6759	-8.41023	-95.4778	-44.9947	-15.7836	-160.691	-45.3392	-54.6136	-151.646	-49.0477	-74.5675	-142.015	-46.5879	-100.763	-187.071	-42.2678	-61.6587	-185.136	-46.7861	-90.3357	-184.421	-48.9224	-115.464	-212.45	-44.816	-58.2111	-213.168	-47.4317	-81.3752	-217.093	-49.9687	-103.333	-234.328	-47.6217	-38.8127	-245.829	-53.3552	-57.6011	-256.056	-53.8583	-76.5196	-213.422	-23.7668	-11.3193	-214.113	-14.8789	22.3132	-181.555	-20.7635	6.31701	
29	0.241667	-158.056	-39.7135	26.493	-137.938	-42.4374	7.7416	-110.524	-41.6456	-5.11367	-93.2821	-44.5369	-13.4267	-163.007	-45.2527	-53.1732	-149.822	-49.1614	-74.4031	-138.137	-48.1203	-98.186	-191.302	-41.4851	-64.7637	-187.014	-47.2662	-89.2665	-181.985	-48.7279	-120.467	-212.114	-45.002	-57.0023	-214.828	-48.3296	-79.8871	-221.215	-49.8587	-103.267	-233.093	-49.0051	-39.409	-245.25	-52.6962	-58.9471	-254.469	-54.7543	-78.0002	-209.02	-24.4574	-6.72432	-213.142	-17.5476	19.7802	-180.102	-21.4728	6.79056	
30	0.25	-160.718	-40.1899	21.6051	-134.503	-40.8317	7.27643	-115.072	-45.0443	-7.25926	-93.9011	-45.3621	-17.6209	-157.511	-45.4513	-56.0186	-152.564	-48.9925	-74.2277	-141.576	-47.0894	-100.891	-191.729	-42.2231	-62.3926	-188.599	-47.1844	-89.7735	-185.163	-49.6055	-117.171	-213.272	-44.0875	-58.902	-218.133	-48.0028	-81.2608	-216.807	-50.9179	-105.934	-236.161	-49.3345	-40.9361	-245.832	-53.7765	-56.1965	-257.104	-53.9582	-79.9515	-214.331	-23.3055	-11.0835	-216.112	-16.9334	20.0124	-182.624	-21.3533	4.77172	
31	0.258333	-159.536	-39.7652	24.0788	-133.469	-41.694	9.03962	-115.187	-44.1152	-7.2071	-93.4704	-44.0979	-13.7913	-160.452	-45.6068	-57.13	-148.706	-49.8406	-74.2389	-138.89	-48.5371	-98.0262	-188.436	-42.9772	-66.7501	-185.577	-48.6306	-90.674	-180.249	-48.7618	-119.551	-215.359	-45.4196	-56.0394	-215.653	-48.935	-77.2282	-218.445	-50.9019	-105.196	-237.051	-49.4844	-37.3092	-248.118	-53.3919	-57.6919	-255.537	-54.5288	-74.6153	-212.527	-23.5318	-9.78	-213.529	-17.8453	21.0603	-177.932	-23.6429	4.3863	
32	0.266667	-158.332	-40.1189	22.8387	-135.53	-41.8562	9.17294	-111.468	-43.8529	-6.88117	-95.259	-45.7561	-17.564	-159.289	-45.7658	-51.6477	-150.003	-50.1525	-76.1939	-141.871	-49.0194	-99.2257	-190.498	-42.7185	-63.293	-187.025	-46.9718	-88.7131	-181.008	-49.8495	-118.233	-212.011	-44.4865	-56.3782	-216.838	-48.103	-76.808	-219.828	-51.3302	-102.91	-238.123	-49.4698	-38.7215	-243.561	-53.4691	-58.6891	-255.374	-54.7861	-78.8669	-212.854	-23.7435	-10.7225	-212.858	-17.8684	20.9518	-183.644	-23.9667	5.47615	
33	0.275	-155.6	-38.7029	24.3457	-133.81	-41.184	7.93555	-110.31	-43.8478	-11.6571	-96.09	-46.2572	-17.4306	-163.128	-46.0714	-54.4929	-152.636	-49.22	-77.1755	-142.349	-49.5885	-100.11	-188.162	-43.3327	-65.9171	-186.715	-47.5332	-88.5699	-181.729	-49.8177	-116.087	-211.827	-45.4056	-58.6556	-216.412	-48.974	-77.6428	-220.418	-51.7044	-105.582	-238.829	-48.736	-42.3181	-243.889	-54.0439	-59.4447	-257.022	-52.7887	-75.7019	-209.051	-23.8988	-10.8978	-212.477	-17.0742	16.2407	-181.917	-21.9573	3.32683	
34	0.283333	-157.778	-39.853	24.0056	-133.529	-42.9203	9.83372	-113.536	-45.8284	-8.6299	-96.2366	-47.5915	-20.1612	-161.46	-46.5652	-52.924	-151.663	-50.3476	-80.5613	-145.094	-49.5327	-98.3464	-187.66	-43.434	-67.1061	-187.183	-48.6005	-91.4865	-181.963	-50.9356	-121.319	-214.339	-44.7448	-57.0975	-213.914	-48.6025	-80.8046	-220.269	-51.8771	-106.641	-236.709	-49.2342	-37.1121	-244.72	-52.7031	-60.3164	-253.704	-52.8465	-79.121	-209.077	-24.5749	-10.5762	-213.46	-16.8491	20.2365	-182.927	-23.0382	3.27013	
35	0.291667	-156.633	-40.9978	26.1548	-134.417	-43.1552	5.97085	-115.784	-46.9212	-10.3638	-96.9302	-49.9331	-21.9507	-159.992	-46.397	-53.8923	-147.846	-51.0993	-79.1435	-143.756	-51.1341	-98.0328	-191.7	-43.8802	-67.5176	-185.591	-50.0263	-91.0593	-180.696	-51.5539	-119.394	-215.119	-45.3682	-57.3228	-215.689	-48.8094	-81.6506	-218.932	-52.6397	-104.285	-237.537	-47.7022	-42.4751	-244.81	-51.6337	-61.2082	-255.494	-52.426	-76.2125	-211.792	-24.2243	-12.6793	-214.987	-16.0693	17.9107	-182.543	-24.811	5.65378	
36	0.3	-156.304	-40.4701	25.4028	-135.933	-43.565	5.50029	-116.08	-47.3885	-10.7986	-93.8785	-48.3624	-19.4667	-164.086	-47.607	-55.745	-154.442	-50.9817	-76.003	-147.286	-51.5268	-99.7338	-190.042	-44.4051	-64.5981	-184.889	-50.4914	-87.5378	-185.558	-52.9664	-117.268	-214.487	-46.2004	-55.1176	-215.601	-50.3997	-76.936	-218.262	-53.5873	-107.803	-234.831	-49.3298	-42.8309	-241.852	-52.8021	-60.4229	-255.582	-52.2975	-79.3601	-214.204	-25.3932	-9.02526	-214.242	-16.615	16.8068	-182.766	-24.9096	4.96873	
